{"accessors":[{"bufferView":0,"byteOffset":0,"componentType":5126,"count":16,"max":[0.23560000000000003,0.011847229958925651,1.76287e-13],"min":[0.004999958013569437,0.006356382322900287,-5e-18],"type":"VEC3"},{"bufferView":0,"byteOffset":192,"componentType":5126,"count":208,"max":[0.22843909963117726,0.009845324588605653,0.004908002332156371],"min":[0.16522756703548938,0.009631036579360331,-4e-18],"type":"VEC3"},{"bufferView":0,"byteOffset":2688,"componentType":5126,"count":42,"max":[0.16675520788639506,0.011847229958925651,0.001173482903079651],"min":[0.16574131859716978,0.009794089218659555,-5e-18],"type":"VEC3"},{"bufferView":0,"byteOffset":3192,"componentType":5126,"count":92,"max":[0.16675520788639506,0.011847229958925651,0.004995241106735154],"min":[0.15037812544693832,0.011629133022530679,-5e-18],"type":"VEC3"},{"bufferView":0,"byteOffset":4296,"componentType":5126,"count":42,"max":[0.1513920147361636,0.011847229958925651,0.0011734829030796462],"min":[0.15037812544693832,0.009794089218659555,-5e-18],"type":"VEC3"},{"bufferView":0,"byteOffset":4800,"componentType":5126,"count":208,"max":[0.15190576629784394,0.009845324588605653,0.004908002332156373],"min":[0.08869423370215603,0.009631036579360331,-4e-18],"type":"VEC3"},{"bufferView":0,"byteOffset":7296,"componentType":5126,"count":42,"max":[0.09022187455306171,0.011847229958925651,0.001173482903079649],"min":[0.08920798526383647,0.009794089218659555,-5e-18],"type":"VEC3"},{"bufferView":0,"byteOffset":7800,"componentType":5126,"count":92,"max":[0.09022187455306171,0.011847229958925651,0.004995241106735156],"min":[0.07384479211360495,0.011629133022530679,-5e-18],"type":"VEC3"},{"bufferView":0,"byteOffset":8904,"componentType":5126,"count":42,"max":[0.0748586814028302,0.011847229958925651,0.001173482903079649],"min":[0.07384479211360495,0.009794089218659555,-5e-18],"type":"VEC3"},{"bufferView":0,"byteOffset":9408,"componentType":5126,"count":208,"max":[0.07537243296451059,0.009845324588605653,0.004908002332156375],"min":[0.01216090036882267,0.009631036579360331,-4e-18],"type":"VEC3"},{"bufferView":0,"byteOffset":11904,"componentType":5126,"count":42,"max":[0.013688541219728383,0.011847229958925651,0.0011734829030796482],"min":[0.012674651930503128,0.009794089218659553,-5e-18],"type":"VEC3"},{"bufferView":0,"byteOffset":12408,"componentType":5126,"count":163,"max":[0.013688541219728383,0.011847229958925651,0.013676851576224107],"min":[0.0,0.011250085724129588,-5e-18],"type":"VEC3"},{"bufferView":0,"byteOffset":14364,"componentType":5126,"count":62,"max":[0.004999999999999999,0.011847229958925651,0.005],"min":[-1.3e-17,0.006138077608365424,-2e-18],"type":"VEC3"},{"bufferView":0,"byteOffset":15108,"componentType":5126,"count":248,"max":[0.24310000000000004,0.006465534680179263,0.09061605314384216],"min":[-0.0025,0.0024,-0.0025],"type":"VEC3"},{"bufferView":0,"byteOffset":18084,"componentType":5126,"count":62,"max":[0.24060000000000004,0.011847229958925651,0.005000030013531395],"min":[0.23560000000000003,0.006138076297946343,-4e-18],"type":"VEC3"},{"bufferView":0,"byteOffset":18828,"componentType":5126,"count":163,"max":[0.24060000000000004,0.011847229958925651,0.013676851576224112],"min":[0.22691145878027166,0.011250085724129588,-5e-18],"type":"VEC3"},{"bufferView":0,"byteOffset":20784,"componentType":5126,"count":42,"max":[0.22792534806949694,0.011847229958925651,0.0011734829030796462],"min":[0.22691145878027166,0.009794089218659555,-5e-18],"type":"VEC3"},{"bufferView":0,"byteOffset":21288,"componentType":5126,"count":4,"max":[0.22745429187816504,0.01179599458897955,0.004169675788229629],"min":[0.2269254789203477,0.009667081539535974,0.001173482903079645],"type":"VEC3"},{"bufferView":0,"byteOffset":21336,"componentType":5126,"count":50,"max":[0.22843909963117726,0.011665177982706321,0.004995241106735152],"min":[0.22745429187816504,0.009631036579360331,0.004082437013650846],"type":"VEC3"},{"bufferView":0,"byteOffset":21936,"componentType":5126,"count":16,"max":[0.23260000000000003,0.011629133022530679,0.00499524110673516],"min":[0.008,0.005634843693019638,0.004733524782998802],"type":"VEC3"},{"bufferView":0,"byteOffset":22128,"componentType":5126,"count":50,"max":[0.1662123747885016,0.01166517798270632,0.004995241106735154],"min":[0.16522756703548938,0.009631036579360331,0.004082437013650853],"type":"VEC3"},{"bufferView":0,"byteOffset":22728,"componentType":5126,"count":4,"max":[0.16674118774631902,0.01179599458897955,0.004169675788229636],"min":[0.1662123747885016,0.00966708153953597,0.001173482903079651],"type":"VEC3"},{"bufferView":0,"byteOffset":22776,"componentType":5126,"count":116,"max":[0.22583276379387085,0.009805514128491904,0.0039089541111665535],"min":[0.22433333333333336,0.008875417389355591,0.00087691393657952],"type":"VEC3"},{"bufferView":0,"byteOffset":24168,"componentType":5126,"count":4,"max":[0.22433333333333336,0.009805514128491904,0.000911809446411034],"min":[0.16933333333333334,0.009006275551223767,0.000876913936579519],"type":"VEC3"},{"bufferView":0,"byteOffset":24216,"componentType":5126,"count":116,"max":[0.16933333333333334,0.009805514128491904,0.003908954111166552],"min":[0.1678339028727959,0.008875417389355591,0.000876913936579519],"type":"VEC3"},{"bufferView":0,"byteOffset":25608,"componentType":5126,"count":4,"max":[0.22433333333333336,0.009674655966623728,0.0039089541111665535],"min":[0.1693333333333333,0.008875417389355591,0.003874058601335039],"type":"VEC3"},{"bufferView":0,"byteOffset":25656,"componentType":5126,"count":4,"max":[0.15092095854483173,0.01179599458897955,0.004169675788229631],"min":[0.15039214558701436,0.009667081539535972,0.001173482903079645],"type":"VEC3"},{"bufferView":0,"byteOffset":25704,"componentType":5126,"count":50,"max":[0.15190576629784394,0.01166517798270632,0.004995241106735154],"min":[0.15092095854483173,0.009631036579360331,0.004082437013650847],"type":"VEC3"},{"bufferView":0,"byteOffset":26304,"componentType":5126,"count":4,"max":[0.09020785441298568,0.01179599458897955,0.0041696757882296355],"min":[0.08967904145516824,0.009667081539535972,0.0011734829030796482],"type":"VEC3"},{"bufferView":0,"byteOffset":26352,"componentType":5126,"count":50,"max":[0.08967904145516824,0.01166517798270632,0.004995241106735156],"min":[0.08869423370215603,0.009631036579360331,0.004082437013650852],"type":"VEC3"},{"bufferView":0,"byteOffset":26952,"componentType":5126,"count":116,"max":[0.14929943046053748,0.009805514128491904,0.003908954111166551],"min":[0.14780000000000001,0.008875417389355591,0.0008769139365795171],"type":"VEC3"},{"bufferView":0,"byteOffset":28344,"componentType":5126,"count":4,"max":[0.14780000000000001,0.009805514128491904,0.000911809446411031],"min":[0.09280000000000001,0.009006275551223767,0.0008769139365795171],"type":"VEC3"},{"bufferView":0,"byteOffset":28392,"componentType":5126,"count":116,"max":[0.09280000000000001,0.009805514128491904,0.003908954111166552],"min":[0.09130056953946258,0.008875417389355591,0.000876913936579518],"type":"VEC3"},{"bufferView":0,"byteOffset":29784,"componentType":5126,"count":4,"max":[0.14780000000000001,0.009674655966623728,0.003908954111166552],"min":[0.09280000000000001,0.008875417389355591,0.003874058601335038],"type":"VEC3"},{"bufferView":0,"byteOffset":29832,"componentType":5126,"count":4,"max":[0.07438762521149837,0.01179599458897955,0.0041696757882296355],"min":[0.073858812253681,0.009667081539535972,0.0011734829030796482],"type":"VEC3"},{"bufferView":0,"byteOffset":29880,"componentType":5126,"count":50,"max":[0.07537243296451059,0.01166517798270632,0.004995241106735156],"min":[0.07438762521149837,0.009631036579360331,0.004082437013650852],"type":"VEC3"},{"bufferView":0,"byteOffset":30480,"componentType":5126,"count":50,"max":[0.01314570812183488,0.01166517798270632,0.00499524110673516],"min":[0.01216090036882267,0.009631036579360331,0.004082437013650854],"type":"VEC3"},{"bufferView":0,"byteOffset":31080,"componentType":5126,"count":4,"max":[0.013674521079652344,0.011795994588979548,0.004169675788229638],"min":[0.01314570812183488,0.009667081539535972,0.0011734829030796482],"type":"VEC3"},{"bufferView":0,"byteOffset":31128,"componentType":5126,"count":116,"max":[0.07276609712720411,0.009805514128491904,0.00390895411116655],"min":[0.07126666666666667,0.008875417389355591,0.000876913936579516],"type":"VEC3"},{"bufferView":0,"byteOffset":32520,"componentType":5126,"count":4,"max":[0.07126666666666667,0.009805514128491904,0.000911809446411033],"min":[0.01626666666666667,0.009006275551223767,0.000876913936579516],"type":"VEC3"},{"bufferView":0,"byteOffset":32568,"componentType":5126,"count":116,"max":[0.01626666666666667,0.009805514128491904,0.003908954111166553],"min":[0.014767236206129242,0.008875417389355591,0.000876913936579519],"type":"VEC3"},{"bufferView":0,"byteOffset":33960,"componentType":5126,"count":4,"max":[0.07126666666666667,0.009674655966623728,0.003908954111166553],"min":[0.01626666666666667,0.008875417389355591,0.003874058601335037],"type":"VEC3"},{"bufferView":0,"byteOffset":34008,"componentType":5126,"count":8,"max":[0.0,0.011628925244763898,0.0831160531438422],"min":[-1.3e-17,0.002727457071813839,0.004999999999999999],"type":"VEC3"},{"bufferView":0,"byteOffset":34104,"componentType":5126,"count":60,"max":[0.008,0.011629133022530679,0.007992385771490678],"min":[0.005,0.005503985531151462,0.0047335247829988075],"type":"VEC3"},{"bufferView":0,"byteOffset":34824,"componentType":5126,"count":8,"max":[0.005,0.011498274860662504,0.08012366736994024],"min":[0.005,0.002354665768857382,0.0077306694477543274],"type":"VEC3"},{"bufferView":0,"byteOffset":34920,"componentType":5126,"count":50,"max":[0.005,0.011316778936002253,0.013133196319406248],"min":[0.004173648177666931,0.009275725782047673,0.012062087110577328],"type":"VEC3"},{"bufferView":0,"byteOffset":35520,"componentType":5126,"count":4,"max":[0.004173648177666931,0.011273822225218019,0.01366167378888907],"min":[0.001173648177666931,0.009252651957464398,0.013045957544827463],"type":"VEC3"},{"bufferView":0,"byteOffset":35568,"componentType":5126,"count":62,"max":[0.001173648177666931,0.01129370511141898,0.013676851576224107],"min":[0.0,0.009251989280959239,0.01259056458006015],"type":"VEC3"},{"bufferView":0,"byteOffset":36312,"componentType":5126,"count":61,"max":[0.24310000000000004,0.006465534680179263,0.004999999999999996],"min":[0.23560000000000003,0.0,-0.0025],"type":"VEC3"},{"bufferView":0,"byteOffset":37044,"componentType":5126,"count":4,"max":[0.24310000000000004,0.006138077608365424,0.08311605314384218],"min":[0.24310000000000004,0.0,0.004999999999999996],"type":"VEC3"},{"bufferView":0,"byteOffset":37092,"componentType":5126,"count":61,"max":[0.24310000000000004,0.00272745707181384,0.09061605314384216],"min":[0.23560000000000003,0.0,0.08311605314384218],"type":"VEC3"},{"bufferView":0,"byteOffset":37824,"componentType":5126,"count":4,"max":[0.23560000000000003,0.0024,0.09061605314384216],"min":[0.005,0.0,0.09061605314384216],"type":"VEC3"},{"bufferView":0,"byteOffset":37872,"componentType":5126,"count":61,"max":[0.005,0.002727457071813839,0.09061605314384216],"min":[-0.002499999999999971,0.0,0.0831160531438422],"type":"VEC3"},{"bufferView":0,"byteOffset":38604,"componentType":5126,"count":4,"max":[-0.002499999999999971,0.006138077608365424,0.0831160531438422],"min":[-0.0025,0.0,0.005000000000000002],"type":"VEC3"},{"bufferView":0,"byteOffset":38652,"componentType":5126,"count":61,"max":[0.004999999999999999,0.006465534680179263,0.005000000000000002],"min":[-0.0025,0.0,-0.0025],"type":"VEC3"},{"bufferView":0,"byteOffset":39384,"componentType":5126,"count":4,"max":[0.23560000000000003,0.006465534680179263,-0.0025],"min":[0.004999999999999999,0.0,-0.0025],"type":"VEC3"},{"bufferView":0,"byteOffset":39432,"componentType":5126,"count":8,"max":[0.24060000000000004,0.011628925244763898,0.08311605626396362],"min":[0.24059999999990994,0.002727456935586396,0.004999999999999998],"type":"VEC3"},{"bufferView":0,"byteOffset":39528,"componentType":5126,"count":62,"max":[0.24060000000000004,0.00821830471416175,0.08811605314384222],"min":[0.2356,0.00250915235728505,0.0831160531438422],"type":"VEC3"},{"bufferView":0,"byteOffset":40272,"componentType":5126,"count":16,"max":[0.23560005616079682,0.008,0.08811605314384222],"min":[0.005,0.002509152357271279,0.08811605314352679],"type":"VEC3"},{"bufferView":0,"byteOffset":40464,"componentType":5126,"count":62,"max":[0.005,0.00821830471416175,0.0881160531438422],"min":[-1.3e-17,0.002509152357271279,0.0831160531438422],"type":"VEC3"},{"bufferView":0,"byteOffset":41208,"componentType":5126,"count":4,"max":[0.2394263518223331,0.011273822225218019,0.013661673788889075],"min":[0.2364263518223331,0.009252651957464397,0.013045957544827463],"type":"VEC3"},{"bufferView":0,"byteOffset":41256,"componentType":5126,"count":50,"max":[0.2364263518223331,0.011316778936002253,0.013133196319406248],"min":[0.23560000000000003,0.009275725782047673,0.012062087110577328],"type":"VEC3"},{"bufferView":0,"byteOffset":41856,"componentType":5126,"count":8,"max":[0.23560000000000003,0.011498274860662504,0.08012366736994024],"min":[0.23560000000000003,0.002354665768857382,0.007730669447754329],"type":"VEC3"},{"bufferView":0,"byteOffset":41952,"componentType":5126,"count":60,"max":[0.23560000000000003,0.011629133022530679,0.00799238577149068],"min":[0.23260000000000003,0.005503985531151462,0.004733524782998802],"type":"VEC3"},{"bufferView":0,"byteOffset":42672,"componentType":5126,"count":62,"max":[0.24060000000000004,0.011293705111418978,0.013676851576224112],"min":[0.2394263518223331,0.009251989280959239,0.012590564580060155],"type":"VEC3"},{"bufferView":0,"byteOffset":43416,"componentType":5126,"count":120,"max":[0.23560000000000003,0.005634843693019638,0.08285909571095941],"min":[0.005,0.002223807606989207,0.004733524782998803],"type":"VEC3"},{"bufferView":0,"byteOffset":44856,"componentType":5126,"count":116,"max":[0.22583276379387085,0.009006275551223769,0.0038740586013350413],"min":[0.16783390287279593,0.008875417389355595,0.0008769139365795189],"type":"VEC3"},{"bufferView":0,"byteOffset":46248,"componentType":5126,"count":116,"max":[0.14929943046053748,0.009006275551223769,0.003874058601335038],"min":[0.0913005695394626,0.008875417389355595,0.000876913936579517],"type":"VEC3"},{"bufferView":0,"byteOffset":47640,"componentType":5126,"count":116,"max":[0.07276609712720411,0.009006275551223769,0.0038740586013350405],"min":[0.014767236206129245,0.008875417389355595,0.000876913936579516],"type":"VEC3"},{"bufferView":0,"byteOffset":49032,"componentType":5126,"count":163,"max":[0.013688541220153956,0.00859714423490134,0.0881160531438422],"min":[0.0,0.008,0.07443920156520684],"type":"VEC3"},{"bufferView":0,"byteOffset":50988,"componentType":5126,"count":62,"max":[0.001173648177666929,0.00859714423490134,0.075438249786792],"min":[0.0,0.006555428404441601,0.07435196279062806],"type":"VEC3"},{"bufferView":0,"byteOffset":51732,"componentType":5126,"count":228,"max":[0.005,0.009318682492831904,0.07587948848169604],"min":[0.0,0.006532354579858326,0.012062087110577328],"type":"VEC3"},{"bufferView":0,"byteOffset":54468,"componentType":5126,"count":60,"max":[0.008,0.008348955098368424,0.08312081203469576],"min":[0.005,0.002223807606989208,0.07986195104620389],"type":"VEC3"},{"bufferView":0,"byteOffset":55188,"componentType":5126,"count":50,"max":[0.005,0.008573407733812911,0.07596672725627482],"min":[0.004173648177666929,0.006532354579858326,0.0748956180474459],"type":"VEC3"},{"bufferView":0,"byteOffset":55788,"componentType":5126,"count":163,"max":[0.24060000000000004,0.008597144234901339,0.08811605314384222],"min":[0.2269114587798461,0.008,0.07443920156520685],"type":"VEC3"},{"bufferView":0,"byteOffset":57744,"componentType":5126,"count":62,"max":[0.24060000000000004,0.008597144234901339,0.07543824978679202],"min":[0.2394263518223331,0.006555428404441601,0.07435196279062807],"type":"VEC3"},{"bufferView":0,"byteOffset":58488,"componentType":5126,"count":228,"max":[0.24060000000000004,0.009318682492831904,0.07587948848169605],"min":[0.23560000000000003,0.006532354579858326,0.012062087110577328],"type":"VEC3"},{"bufferView":0,"byteOffset":61224,"componentType":5126,"count":42,"max":[0.013703938424602985,0.008051235369946098,0.0881160531438422],"min":[0.012690049135377727,0.005998094629680004,0.08694257024076253],"type":"VEC3"},{"bufferView":0,"byteOffset":61728,"componentType":5126,"count":208,"max":[0.07537243296451061,0.006220000493329902,0.0881160531438422],"min":[0.01216090036882272,0.005998094629680004,0.08303357326011698],"type":"VEC3"},{"bufferView":0,"byteOffset":64224,"componentType":5126,"count":42,"max":[0.07484328419795559,0.008051235369946102,0.0881160531438422],"min":[0.07382939490873035,0.005998094629680005,0.08694257024076253],"type":"VEC3"},{"bufferView":0,"byteOffset":64728,"componentType":5126,"count":92,"max":[0.09022187455348732,0.00821809693650025,0.0881160531438422],"min":[0.07384479211317936,0.008,0.08312081203469576],"type":"VEC3"},{"bufferView":0,"byteOffset":65832,"componentType":5126,"count":42,"max":[0.09023727175793635,0.008051235369946102,0.0881160531438422],"min":[0.0892233824687111,0.005998094629680004,0.08694257024076253],"type":"VEC3"},{"bufferView":0,"byteOffset":66336,"componentType":5126,"count":208,"max":[0.15190576629784397,0.006220000493329902,0.0881160531438422],"min":[0.08869423370215608,0.005998094629680004,0.08303357326011698],"type":"VEC3"},{"bufferView":0,"byteOffset":68832,"componentType":5126,"count":42,"max":[0.15137661753128892,0.008051235369946102,0.0881160531438422],"min":[0.15036272824206368,0.005998094629680004,0.08694257024076253],"type":"VEC3"},{"bufferView":0,"byteOffset":69336,"componentType":5126,"count":92,"max":[0.16675520788682063,0.00821809693650025,0.0881160531438422],"min":[0.15037812544651272,0.008,0.08312081203469576],"type":"VEC3"},{"bufferView":0,"byteOffset":70440,"componentType":5126,"count":42,"max":[0.16677060509126967,0.0080512353699461,0.0881160531438422],"min":[0.1657567158020444,0.005998094629680004,0.08694257024076253],"type":"VEC3"},{"bufferView":0,"byteOffset":70944,"componentType":5126,"count":208,"max":[0.22843909963117737,0.006220000493329902,0.0881160531438422],"min":[0.16522756703548944,0.005998094629680004,0.08303357326011698],"type":"VEC3"},{"bufferView":0,"byteOffset":73440,"componentType":5126,"count":42,"max":[0.2279099508646223,0.008051235369946102,0.0881160531438422],"min":[0.22689606157539705,0.005998094629680004,0.08694257024076253],"type":"VEC3"},{"bufferView":0,"byteOffset":73944,"componentType":5126,"count":50,"max":[0.2364263518223331,0.00857340773381291,0.07596672725627483],"min":[0.23560000000000003,0.006532354579858326,0.07489561804744592],"type":"VEC3"},{"bufferView":0,"byteOffset":74544,"componentType":5126,"count":60,"max":[0.23560000000000003,0.008348955098368424,0.08312081203469576],"min":[0.23260000000000003,0.002223807606989208,0.07986195104620389],"type":"VEC3"},{"bufferView":0,"byteOffset":75264,"componentType":5126,"count":16,"max":[0.23260000000000003,0.00821809693650025,0.08312081203469576],"min":[0.008,0.002223807606989208,0.08285909571095941],"type":"VEC3"},{"bufferView":0,"byteOffset":75456,"componentType":5126,"count":4,"max":[0.004173648177666929,0.008596481558396185,0.07498285682202468],"min":[0.001173648177666929,0.0065753112906425625,0.07436714057796309],"type":"VEC3"},{"bufferView":0,"byteOffset":75504,"componentType":5126,"count":50,"max":[0.013145708121834928,0.00821809693650025,0.08394637735320128],"min":[0.01216090036882272,0.006183955533154262,0.08303357326011698],"type":"VEC3"},{"bufferView":0,"byteOffset":76104,"componentType":5126,"count":4,"max":[0.013689918284526944,0.008182051976324609,0.08694257024076253],"min":[0.013145708121834928,0.006049329999626104,0.0838591385786225],"type":"VEC3"},{"bufferView":0,"byteOffset":76152,"componentType":5126,"count":116,"max":[0.004,0.00919045592477508,0.01649696170254441],"min":[0.000999999999999999,0.00832581310953525,0.014964062857722341],"type":"VEC3"},{"bufferView":0,"byteOffset":77544,"componentType":5126,"count":4,"max":[0.001,0.009125051686803387,0.07144461388972896],"min":[0.000999999999999999,0.005926746808618708,0.01646206619271289],"type":"VEC3"},{"bufferView":0,"byteOffset":77592,"componentType":5126,"count":116,"max":[0.004,0.006725985385886846,0.07294261722471951],"min":[0.001,0.005861342570646992,0.07140971837989744],"type":"VEC3"},{"bufferView":0,"byteOffset":78984,"componentType":5126,"count":4,"max":[0.004,0.009125051686803387,0.07144461388972896],"min":[0.004,0.005926746808618708,0.01646206619271289],"type":"VEC3"},{"bufferView":0,"byteOffset":79032,"componentType":5126,"count":4,"max":[0.22745429187816515,0.00818205197632461,0.08694257024076253],"min":[0.22691008171547308,0.006049329999626106,0.0838591385786225],"type":"VEC3"},{"bufferView":0,"byteOffset":79080,"componentType":5126,"count":50,"max":[0.22843909963117737,0.00821809693650025,0.08394637735320128],"min":[0.22745429187816515,0.006183955533154262,0.08303357326011698],"type":"VEC3"},{"bufferView":0,"byteOffset":79680,"componentType":5126,"count":4,"max":[0.2394263518223331,0.008596481558396183,0.0749828568220247],"min":[0.2364263518223331,0.006575311290642562,0.0743671405779631],"type":"VEC3"},{"bufferView":0,"byteOffset":79728,"componentType":5126,"count":116,"max":[0.23960000000000004,0.006725985385886846,0.07294261704480101],"min":[0.23660000000000003,0.005861342578502404,0.07140971837989744],"type":"VEC3"},{"bufferView":0,"byteOffset":81120,"componentType":5126,"count":4,"max":[0.23960000000000004,0.009125051686803387,0.07144461388972896],"min":[0.2396,0.005926746808618708,0.016462066192712895],"type":"VEC3"},{"bufferView":0,"byteOffset":81168,"componentType":5126,"count":116,"max":[0.2396,0.009190455933486313,0.016496961702544412],"min":[0.23660000000000003,0.00832581310953525,0.01496406265820229],"type":"VEC3"},{"bufferView":0,"byteOffset":82560,"componentType":5126,"count":4,"max":[0.23660000000000003,0.009125051686803387,0.07144461388972896],"min":[0.23660000000000003,0.005926746808618708,0.01646206619271289],"type":"VEC3"},{"bufferView":0,"byteOffset":82608,"componentType":5126,"count":4,"max":[0.0743876252114984,0.00818205197632461,0.08694257024076253],"min":[0.07384341504880639,0.006049329999626105,0.0838591385786225],"type":"VEC3"},{"bufferView":0,"byteOffset":82656,"componentType":5126,"count":50,"max":[0.07537243296451061,0.00821809693650025,0.08394637735320128],"min":[0.0743876252114984,0.006183955533154263,0.08303357326011698],"type":"VEC3"},{"bufferView":0,"byteOffset":83256,"componentType":5126,"count":116,"max":[0.016266666666666648,0.0061763811060138694,0.0870297661470679],"min":[0.01476723620612922,0.005246284366877556,0.08399772597248086],"type":"VEC3"},{"bufferView":0,"byteOffset":84648,"componentType":5126,"count":4,"max":[0.07126666666666664,0.006045522944145693,0.0870297661470679],"min":[0.016266666666666648,0.005246284366877556,0.08699487063723636],"type":"VEC3"},{"bufferView":0,"byteOffset":84696,"componentType":5126,"count":116,"max":[0.07276609712720408,0.006176381106013869,0.08702976614706788],"min":[0.07126666666666664,0.005246284366877557,0.08399772597248084],"type":"VEC3"},{"bufferView":0,"byteOffset":86088,"componentType":5126,"count":4,"max":[0.07126666666666664,0.0061763811060138694,0.08403262148231237],"min":[0.016266666666666648,0.00537714252874573,0.08399772597248084],"type":"VEC3"},{"bufferView":0,"byteOffset":86136,"componentType":5126,"count":50,"max":[0.08967904145516829,0.00821809693650025,0.08394637735320128],"min":[0.08869423370215608,0.006183955533154263,0.08303357326011698],"type":"VEC3"},{"bufferView":0,"byteOffset":86736,"componentType":5126,"count":4,"max":[0.0902232516178603,0.00818205197632461,0.08694257024076253],"min":[0.08967904145516829,0.006049329999626106,0.0838591385786225],"type":"VEC3"},{"bufferView":0,"byteOffset":86784,"componentType":5126,"count":4,"max":[0.15092095854483176,0.00818205197632461,0.08694257024076253],"min":[0.1503767483821397,0.006049329999626106,0.0838591385786225],"type":"VEC3"},{"bufferView":0,"byteOffset":86832,"componentType":5126,"count":50,"max":[0.15190576629784397,0.00821809693650025,0.08394637735320128],"min":[0.15092095854483176,0.006183955533154263,0.08303357326011698],"type":"VEC3"},{"bufferView":0,"byteOffset":87432,"componentType":5126,"count":116,"max":[0.09280000000000001,0.006176381106013867,0.08702976614706791],"min":[0.09130056953946258,0.005246284366877555,0.08399772597248087],"type":"VEC3"},{"bufferView":0,"byteOffset":88824,"componentType":5126,"count":4,"max":[0.14780000000000001,0.006045522944145692,0.08702976614706791],"min":[0.09280000000000001,0.005246284366877555,0.08699487063723639],"type":"VEC3"},{"bufferView":0,"byteOffset":88872,"componentType":5126,"count":116,"max":[0.14929943046053748,0.006176381106013867,0.08702976614706791],"min":[0.14780000000000001,0.005246284366877555,0.08399772597248087],"type":"VEC3"},{"bufferView":0,"byteOffset":90264,"componentType":5126,"count":4,"max":[0.14780000000000001,0.006176381106013867,0.08403262148231239],"min":[0.09280000000000001,0.005377142528745729,0.08399772597248087],"type":"VEC3"},{"bufferView":0,"byteOffset":90312,"componentType":5126,"count":50,"max":[0.16621237478850165,0.00821809693650025,0.08394637735320128],"min":[0.16522756703548944,0.006183955533154262,0.08303357326011698],"type":"VEC3"},{"bufferView":0,"byteOffset":90912,"componentType":5126,"count":4,"max":[0.1667565849511936,0.00818205197632461,0.08694257024076253],"min":[0.16621237478850165,0.006049329999626105,0.0838591385786225],"type":"VEC3"},{"bufferView":0,"byteOffset":90960,"componentType":5126,"count":116,"max":[0.16933333333333325,0.0061763811060138694,0.0870297661470679],"min":[0.16783390287279581,0.005246284366877556,0.08399772597248086],"type":"VEC3"},{"bufferView":0,"byteOffset":92352,"componentType":5126,"count":4,"max":[0.2243333333333333,0.006045522944145694,0.0870297661470679],"min":[0.16933333333333325,0.005246284366877556,0.08699487063723635],"type":"VEC3"},{"bufferView":0,"byteOffset":92400,"componentType":5126,"count":116,"max":[0.22583276379387077,0.0061763811060138694,0.08702976614706787],"min":[0.22433333333333327,0.005246284366877557,0.08399772597248083],"type":"VEC3"},{"bufferView":0,"byteOffset":93792,"componentType":5126,"count":4,"max":[0.22433333333333327,0.0061763811060138694,0.08403262148231237],"min":[0.16933333333333325,0.00537714252874573,0.08399772597248083],"type":"VEC3"},{"bufferView":0,"byteOffset":93840,"componentType":5126,"count":116,"max":[0.004,0.008391217347506938,0.07290772171488802],"min":[0.000999999999999999,0.005861342570646993,0.014964062857722341],"type":"VEC3"},{"bufferView":0,"byteOffset":95232,"componentType":5126,"count":116,"max":[0.23960000000000004,0.008391217356218174,0.07290772153496951],"min":[0.23660000000000003,0.005861342578502405,0.01496406265820229],"type":"VEC3"},{"bufferView":0,"byteOffset":96624,"componentType":5126,"count":116,"max":[0.07276609712720408,0.005377142528745732,0.08699487063723638],"min":[0.014767236206129223,0.0052462843668775565,0.08399772597248084],"type":"VEC3"},{"bufferView":0,"byteOffset":98016,"componentType":5126,"count":116,"max":[0.14929943046053748,0.005377142528745728,0.08699487063723639],"min":[0.0913005695394626,0.005246284366877555,0.08399772597248087],"type":"VEC3"},{"bufferView":0,"byteOffset":99408,"componentType":5126,"count":116,"max":[0.22583276379387077,0.005377142528745732,0.08699487063723638],"min":[0.16783390287279584,0.0052462843668775565,0.08399772597248083],"type":"VEC3"},{"bufferView":0,"byteOffset":100800,"componentType":5126,"count":120,"max":[0.24310000000000004,0.0,0.09061605314384216],"min":[-0.0025,0.0,-0.0025],"type":"VEC3"},{"bufferView":1,"byteOffset":0,"componentType":5126,"count":16,"type":"VEC3"},{"bufferView":1,"byteOffset":192,"componentType":5126,"count":208,"type":"VEC3"},{"bufferView":1,"byteOffset":2688,"componentType":5126,"count":42,"type":"VEC3"},{"bufferView":1,"byteOffset":3192,"componentType":5126,"count":92,"type":"VEC3"},{"bufferView":1,"byteOffset":4296,"componentType":5126,"count":42,"type":"VEC3"},{"bufferView":1,"byteOffset":4800,"componentType":5126,"count":208,"type":"VEC3"},{"bufferView":1,"byteOffset":7296,"componentType":5126,"count":42,"type":"VEC3"},{"bufferView":1,"byteOffset":7800,"componentType":5126,"count":92,"type":"VEC3"},{"bufferView":1,"byteOffset":8904,"componentType":5126,"count":42,"type":"VEC3"},{"bufferView":1,"byteOffset":9408,"componentType":5126,"count":208,"type":"VEC3"},{"bufferView":1,"byteOffset":11904,"componentType":5126,"count":42,"type":"VEC3"},{"bufferView":1,"byteOffset":12408,"componentType":5126,"count":163,"type":"VEC3"},{"bufferView":1,"byteOffset":14364,"componentType":5126,"count":62,"type":"VEC3"},{"bufferView":1,"byteOffset":15108,"componentType":5126,"count":248,"type":"VEC3"},{"bufferView":1,"byteOffset":18084,"componentType":5126,"count":62,"type":"VEC3"},{"bufferView":1,"byteOffset":18828,"componentType":5126,"count":163,"type":"VEC3"},{"bufferView":1,"byteOffset":20784,"componentType":5126,"count":42,"type":"VEC3"},{"bufferView":1,"byteOffset":21288,"componentType":5126,"count":4,"type":"VEC3"},{"bufferView":1,"byteOffset":21336,"componentType":5126,"count":50,"type":"VEC3"},{"bufferView":1,"byteOffset":21936,"componentType":5126,"count":16,"type":"VEC3"},{"bufferView":1,"byteOffset":22128,"componentType":5126,"count":50,"type":"VEC3"},{"bufferView":1,"byteOffset":22728,"componentType":5126,"count":4,"type":"VEC3"},{"bufferView":1,"byteOffset":22776,"componentType":5126,"count":116,"type":"VEC3"},{"bufferView":1,"byteOffset":24168,"componentType":5126,"count":4,"type":"VEC3"},{"bufferView":1,"byteOffset":24216,"componentType":5126,"count":116,"type":"VEC3"},{"bufferView":1,"byteOffset":25608,"componentType":5126,"count":4,"type":"VEC3"},{"bufferView":1,"byteOffset":25656,"componentType":5126,"count":4,"type":"VEC3"},{"bufferView":1,"byteOffset":25704,"componentType":5126,"count":50,"type":"VEC3"},{"bufferView":1,"byteOffset":26304,"componentType":5126,"count":4,"type":"VEC3"},{"bufferView":1,"byteOffset":26352,"componentType":5126,"count":50,"type":"VEC3"},{"bufferView":1,"byteOffset":26952,"componentType":5126,"count":116,"type":"VEC3"},{"bufferView":1,"byteOffset":28344,"componentType":5126,"count":4,"type":"VEC3"},{"bufferView":1,"byteOffset":28392,"componentType":5126,"count":116,"type":"VEC3"},{"bufferView":1,"byteOffset":29784,"componentType":5126,"count":4,"type":"VEC3"},{"bufferView":1,"byteOffset":29832,"componentType":5126,"count":4,"type":"VEC3"},{"bufferView":1,"byteOffset":29880,"componentType":5126,"count":50,"type":"VEC3"},{"bufferView":1,"byteOffset":30480,"componentType":5126,"count":50,"type":"VEC3"},{"bufferView":1,"byteOffset":31080,"componentType":5126,"count":4,"type":"VEC3"},{"bufferView":1,"byteOffset":31128,"componentType":5126,"count":116,"type":"VEC3"},{"bufferView":1,"byteOffset":32520,"componentType":5126,"count":4,"type":"VEC3"},{"bufferView":1,"byteOffset":32568,"componentType":5126,"count":116,"type":"VEC3"},{"bufferView":1,"byteOffset":33960,"componentType":5126,"count":4,"type":"VEC3"},{"bufferView":1,"byteOffset":34008,"componentType":5126,"count":8,"type":"VEC3"},{"bufferView":1,"byteOffset":34104,"componentType":5126,"count":60,"type":"VEC3"},{"bufferView":1,"byteOffset":34824,"componentType":5126,"count":8,"type":"VEC3"},{"bufferView":1,"byteOffset":34920,"componentType":5126,"count":50,"type":"VEC3"},{"bufferView":1,"byteOffset":35520,"componentType":5126,"count":4,"type":"VEC3"},{"bufferView":1,"byteOffset":35568,"componentType":5126,"count":62,"type":"VEC3"},{"bufferView":1,"byteOffset":36312,"componentType":5126,"count":61,"type":"VEC3"},{"bufferView":1,"byteOffset":37044,"componentType":5126,"count":4,"type":"VEC3"},{"bufferView":1,"byteOffset":37092,"componentType":5126,"count":61,"type":"VEC3"},{"bufferView":1,"byteOffset":37824,"componentType":5126,"count":4,"type":"VEC3"},{"bufferView":1,"byteOffset":37872,"componentType":5126,"count":61,"type":"VEC3"},{"bufferView":1,"byteOffset":38604,"componentType":5126,"count":4,"type":"VEC3"},{"bufferView":1,"byteOffset":38652,"componentType":5126,"count":61,"type":"VEC3"},{"bufferView":1,"byteOffset":39384,"componentType":5126,"count":4,"type":"VEC3"},{"bufferView":1,"byteOffset":39432,"componentType":5126,"count":8,"type":"VEC3"},{"bufferView":1,"byteOffset":39528,"componentType":5126,"count":62,"type":"VEC3"},{"bufferView":1,"byteOffset":40272,"componentType":5126,"count":16,"type":"VEC3"},{"bufferView":1,"byteOffset":40464,"componentType":5126,"count":62,"type":"VEC3"},{"bufferView":1,"byteOffset":41208,"componentType":5126,"count":4,"type":"VEC3"},{"bufferView":1,"byteOffset":41256,"componentType":5126,"count":50,"type":"VEC3"},{"bufferView":1,"byteOffset":41856,"componentType":5126,"count":8,"type":"VEC3"},{"bufferView":1,"byteOffset":41952,"componentType":5126,"count":60,"type":"VEC3"},{"bufferView":1,"byteOffset":42672,"componentType":5126,"count":62,"type":"VEC3"},{"bufferView":1,"byteOffset":43416,"componentType":5126,"count":120,"type":"VEC3"},{"bufferView":1,"byteOffset":44856,"componentType":5126,"count":116,"type":"VEC3"},{"bufferView":1,"byteOffset":46248,"componentType":5126,"count":116,"type":"VEC3"},{"bufferView":1,"byteOffset":47640,"componentType":5126,"count":116,"type":"VEC3"},{"bufferView":1,"byteOffset":49032,"componentType":5126,"count":163,"type":"VEC3"},{"bufferView":1,"byteOffset":50988,"componentType":5126,"count":62,"type":"VEC3"},{"bufferView":1,"byteOffset":51732,"componentType":5126,"count":228,"type":"VEC3"},{"bufferView":1,"byteOffset":54468,"componentType":5126,"count":60,"type":"VEC3"},{"bufferView":1,"byteOffset":55188,"componentType":5126,"count":50,"type":"VEC3"},{"bufferView":1,"byteOffset":55788,"componentType":5126,"count":163,"type":"VEC3"},{"bufferView":1,"byteOffset":57744,"componentType":5126,"count":62,"type":"VEC3"},{"bufferView":1,"byteOffset":58488,"componentType":5126,"count":228,"type":"VEC3"},{"bufferView":1,"byteOffset":61224,"componentType":5126,"count":42,"type":"VEC3"},{"bufferView":1,"byteOffset":61728,"componentType":5126,"count":208,"type":"VEC3"},{"bufferView":1,"byteOffset":64224,"componentType":5126,"count":42,"type":"VEC3"},{"bufferView":1,"byteOffset":64728,"componentType":5126,"count":92,"type":"VEC3"},{"bufferView":1,"byteOffset":65832,"componentType":5126,"count":42,"type":"VEC3"},{"bufferView":1,"byteOffset":66336,"componentType":5126,"count":208,"type":"VEC3"},{"bufferView":1,"byteOffset":68832,"componentType":5126,"count":42,"type":"VEC3"},{"bufferView":1,"byteOffset":69336,"componentType":5126,"count":92,"type":"VEC3"},{"bufferView":1,"byteOffset":70440,"componentType":5126,"count":42,"type":"VEC3"},{"bufferView":1,"byteOffset":70944,"componentType":5126,"count":208,"type":"VEC3"},{"bufferView":1,"byteOffset":73440,"componentType":5126,"count":42,"type":"VEC3"},{"bufferView":1,"byteOffset":73944,"componentType":5126,"count":50,"type":"VEC3"},{"bufferView":1,"byteOffset":74544,"componentType":5126,"count":60,"type":"VEC3"},{"bufferView":1,"byteOffset":75264,"componentType":5126,"count":16,"type":"VEC3"},{"bufferView":1,"byteOffset":75456,"componentType":5126,"count":4,"type":"VEC3"},{"bufferView":1,"byteOffset":75504,"componentType":5126,"count":50,"type":"VEC3"},{"bufferView":1,"byteOffset":76104,"componentType":5126,"count":4,"type":"VEC3"},{"bufferView":1,"byteOffset":76152,"componentType":5126,"count":116,"type":"VEC3"},{"bufferView":1,"byteOffset":77544,"componentType":5126,"count":4,"type":"VEC3"},{"bufferView":1,"byteOffset":77592,"componentType":5126,"count":116,"type":"VEC3"},{"bufferView":1,"byteOffset":78984,"componentType":5126,"count":4,"type":"VEC3"},{"bufferView":1,"byteOffset":79032,"componentType":5126,"count":4,"type":"VEC3"},{"bufferView":1,"byteOffset":79080,"componentType":5126,"count":50,"type":"VEC3"},{"bufferView":1,"byteOffset":79680,"componentType":5126,"count":4,"type":"VEC3"},{"bufferView":1,"byteOffset":79728,"componentType":5126,"count":116,"type":"VEC3"},{"bufferView":1,"byteOffset":81120,"componentType":5126,"count":4,"type":"VEC3"},{"bufferView":1,"byteOffset":81168,"componentType":5126,"count":116,"type":"VEC3"},{"bufferView":1,"byteOffset":82560,"componentType":5126,"count":4,"type":"VEC3"},{"bufferView":1,"byteOffset":82608,"componentType":5126,"count":4,"type":"VEC3"},{"bufferView":1,"byteOffset":82656,"componentType":5126,"count":50,"type":"VEC3"},{"bufferView":1,"byteOffset":83256,"componentType":5126,"count":116,"type":"VEC3"},{"bufferView":1,"byteOffset":84648,"componentType":5126,"count":4,"type":"VEC3"},{"bufferView":1,"byteOffset":84696,"componentType":5126,"count":116,"type":"VEC3"},{"bufferView":1,"byteOffset":86088,"componentType":5126,"count":4,"type":"VEC3"},{"bufferView":1,"byteOffset":86136,"componentType":5126,"count":50,"type":"VEC3"},{"bufferView":1,"byteOffset":86736,"componentType":5126,"count":4,"type":"VEC3"},{"bufferView":1,"byteOffset":86784,"componentType":5126,"count":4,"type":"VEC3"},{"bufferView":1,"byteOffset":86832,"componentType":5126,"count":50,"type":"VEC3"},{"bufferView":1,"byteOffset":87432,"componentType":5126,"count":116,"type":"VEC3"},{"bufferView":1,"byteOffset":88824,"componentType":5126,"count":4,"type":"VEC3"},{"bufferView":1,"byteOffset":88872,"componentType":5126,"count":116,"type":"VEC3"},{"bufferView":1,"byteOffset":90264,"componentType":5126,"count":4,"type":"VEC3"},{"bufferView":1,"byteOffset":90312,"componentType":5126,"count":50,"type":"VEC3"},{"bufferView":1,"byteOffset":90912,"componentType":5126,"count":4,"type":"VEC3"},{"bufferView":1,"byteOffset":90960,"componentType":5126,"count":116,"type":"VEC3"},{"bufferView":1,"byteOffset":92352,"componentType":5126,"count":4,"type":"VEC3"},{"bufferView":1,"byteOffset":92400,"componentType":5126,"count":116,"type":"VEC3"},{"bufferView":1,"byteOffset":93792,"componentType":5126,"count":4,"type":"VEC3"},{"bufferView":1,"byteOffset":93840,"componentType":5126,"count":116,"type":"VEC3"},{"bufferView":1,"byteOffset":95232,"componentType":5126,"count":116,"type":"VEC3"},{"bufferView":1,"byteOffset":96624,"componentType":5126,"count":116,"type":"VEC3"},{"bufferView":1,"byteOffset":98016,"componentType":5126,"count":116,"type":"VEC3"},{"bufferView":1,"byteOffset":99408,"componentType":5126,"count":116,"type":"VEC3"},{"bufferView":1,"byteOffset":100800,"componentType":5126,"count":120,"type":"VEC3"},{"bufferView":2,"byteOffset":0,"componentType":5123,"count":42,"type":"SCALAR"},{"bufferView":2,"byteOffset":84,"componentType":5123,"count":624,"type":"SCALAR"},{"bufferView":2,"byteOffset":1332,"componentType":5123,"count":120,"type":"SCALAR"},{"bufferView":2,"byteOffset":1572,"componentType":5123,"count":270,"type":"SCALAR"},{"bufferView":2,"byteOffset":2112,"componentType":5123,"count":120,"type":"SCALAR"},{"bufferView":2,"byteOffset":2352,"componentType":5123,"count":624,"type":"SCALAR"},{"bufferView":2,"byteOffset":3600,"componentType":5123,"count":120,"type":"SCALAR"},{"bufferView":2,"byteOffset":3840,"componentType":5123,"count":270,"type":"SCALAR"},{"bufferView":2,"byteOffset":4380,"componentType":5123,"count":120,"type":"SCALAR"},{"bufferView":2,"byteOffset":4620,"componentType":5123,"count":624,"type":"SCALAR"},{"bufferView":2,"byteOffset":5868,"componentType":5123,"count":120,"type":"SCALAR"},{"bufferView":2,"byteOffset":6108,"componentType":5123,"count":483,"type":"SCALAR"},{"bufferView":2,"byteOffset":7076,"componentType":5123,"count":180,"type":"SCALAR"},{"bufferView":2,"byteOffset":7436,"componentType":5123,"count":744,"type":"SCALAR"},{"bufferView":2,"byteOffset":8924,"componentType":5123,"count":180,"type":"SCALAR"},{"bufferView":2,"byteOffset":9284,"componentType":5123,"count":483,"type":"SCALAR"},{"bufferView":2,"byteOffset":10252,"componentType":5123,"count":120,"type":"SCALAR"},{"bufferView":2,"byteOffset":10492,"componentType":5123,"count":6,"type":"SCALAR"},{"bufferView":2,"byteOffset":10504,"componentType":5123,"count":144,"type":"SCALAR"},{"bufferView":2,"byteOffset":10792,"componentType":5123,"count":42,"type":"SCALAR"},{"bufferView":2,"byteOffset":10876,"componentType":5123,"count":144,"type":"SCALAR"},{"bufferView":2,"byteOffset":11164,"componentType":5123,"count":6,"type":"SCALAR"},{"bufferView":2,"byteOffset":11176,"componentType":5123,"count":342,"type":"SCALAR"},{"bufferView":2,"byteOffset":11860,"componentType":5123,"count":6,"type":"SCALAR"},{"bufferView":2,"byteOffset":11872,"componentType":5123,"count":342,"type":"SCALAR"},{"bufferView":2,"byteOffset":12556,"componentType":5123,"count":6,"type":"SCALAR"},{"bufferView":2,"byteOffset":12568,"componentType":5123,"count":6,"type":"SCALAR"},{"bufferView":2,"byteOffset":12580,"componentType":5123,"count":144,"type":"SCALAR"},{"bufferView":2,"byteOffset":12868,"componentType":5123,"count":6,"type":"SCALAR"},{"bufferView":2,"byteOffset":12880,"componentType":5123,"count":144,"type":"SCALAR"},{"bufferView":2,"byteOffset":13168,"componentType":5123,"count":342,"type":"SCALAR"},{"bufferView":2,"byteOffset":13852,"componentType":5123,"count":6,"type":"SCALAR"},{"bufferView":2,"byteOffset":13864,"componentType":5123,"count":342,"type":"SCALAR"},{"bufferView":2,"byteOffset":14548,"componentType":5123,"count":6,"type":"SCALAR"},{"bufferView":2,"byteOffset":14560,"componentType":5123,"count":6,"type":"SCALAR"},{"bufferView":2,"byteOffset":14572,"componentType":5123,"count":144,"type":"SCALAR"},{"bufferView":2,"byteOffset":14860,"componentType":5123,"count":144,"type":"SCALAR"},{"bufferView":2,"byteOffset":15148,"componentType":5123,"count":6,"type":"SCALAR"},{"bufferView":2,"byteOffset":15160,"componentType":5123,"count":342,"type":"SCALAR"},{"bufferView":2,"byteOffset":15844,"componentType":5123,"count":6,"type":"SCALAR"},{"bufferView":2,"byteOffset":15856,"componentType":5123,"count":342,"type":"SCALAR"},{"bufferView":2,"byteOffset":16540,"componentType":5123,"count":6,"type":"SCALAR"},{"bufferView":2,"byteOffset":16552,"componentType":5123,"count":18,"type":"SCALAR"},{"bufferView":2,"byteOffset":16588,"componentType":5123,"count":174,"type":"SCALAR"},{"bufferView":2,"byteOffset":16936,"componentType":5123,"count":18,"type":"SCALAR"},{"bufferView":2,"byteOffset":16972,"componentType":5123,"count":144,"type":"SCALAR"},{"bufferView":2,"byteOffset":17260,"componentType":5123,"count":6,"type":"SCALAR"},{"bufferView":2,"byteOffset":17272,"componentType":5123,"count":180,"type":"SCALAR"},{"bufferView":2,"byteOffset":17632,"componentType":5123,"count":177,"type":"SCALAR"},{"bufferView":2,"byteOffset":17988,"componentType":5123,"count":6,"type":"SCALAR"},{"bufferView":2,"byteOffset":18000,"componentType":5123,"count":177,"type":"SCALAR"},{"bufferView":2,"byteOffset":18356,"componentType":5123,"count":6,"type":"SCALAR"},{"bufferView":2,"byteOffset":18368,"componentType":5123,"count":177,"type":"SCALAR"},{"bufferView":2,"byteOffset":18724,"componentType":5123,"count":6,"type":"SCALAR"},{"bufferView":2,"byteOffset":18736,"componentType":5123,"count":177,"type":"SCALAR"},{"bufferView":2,"byteOffset":19092,"componentType":5123,"count":6,"type":"SCALAR"},{"bufferView":2,"byteOffset":19104,"componentType":5123,"count":18,"type":"SCALAR"},{"bufferView":2,"byteOffset":19140,"componentType":5123,"count":180,"type":"SCALAR"},{"bufferView":2,"byteOffset":19500,"componentType":5123,"count":42,"type":"SCALAR"},{"bufferView":2,"byteOffset":19584,"componentType":5123,"count":180,"type":"SCALAR"},{"bufferView":2,"byteOffset":19944,"componentType":5123,"count":6,"type":"SCALAR"},{"bufferView":2,"byteOffset":19956,"componentType":5123,"count":144,"type":"SCALAR"},{"bufferView":2,"byteOffset":20244,"componentType":5123,"count":18,"type":"SCALAR"},{"bufferView":2,"byteOffset":20280,"componentType":5123,"count":174,"type":"SCALAR"},{"bufferView":2,"byteOffset":20628,"componentType":5123,"count":180,"type":"SCALAR"},{"bufferView":2,"byteOffset":20988,"componentType":5123,"count":354,"type":"SCALAR"},{"bufferView":2,"byteOffset":21696,"componentType":5123,"count":342,"type":"SCALAR"},{"bufferView":2,"byteOffset":22380,"componentType":5123,"count":342,"type":"SCALAR"},{"bufferView":2,"byteOffset":23064,"componentType":5123,"count":342,"type":"SCALAR"},{"bufferView":2,"byteOffset":23748,"componentType":5123,"count":483,"type":"SCALAR"},{"bufferView":2,"byteOffset":24716,"componentType":5123,"count":180,"type":"SCALAR"},{"bufferView":2,"byteOffset":25076,"componentType":5123,"count":684,"type":"SCALAR"},{"bufferView":2,"byteOffset":26444,"componentType":5123,"count":174,"type":"SCALAR"},{"bufferView":2,"byteOffset":26792,"componentType":5123,"count":144,"type":"SCALAR"},{"bufferView":2,"byteOffset":27080,"componentType":5123,"count":483,"type":"SCALAR"},{"bufferView":2,"byteOffset":28048,"componentType":5123,"count":180,"type":"SCALAR"},{"bufferView":2,"byteOffset":28408,"componentType":5123,"count":684,"type":"SCALAR"},{"bufferView":2,"byteOffset":29776,"componentType":5123,"count":120,"type":"SCALAR"},{"bufferView":2,"byteOffset":30016,"componentType":5123,"count":624,"type":"SCALAR"},{"bufferView":2,"byteOffset":31264,"componentType":5123,"count":120,"type":"SCALAR"},{"bufferView":2,"byteOffset":31504,"componentType":5123,"count":270,"type":"SCALAR"},{"bufferView":2,"byteOffset":32044,"componentType":5123,"count":120,"type":"SCALAR"},{"bufferView":2,"byteOffset":32284,"componentType":5123,"count":624,"type":"SCALAR"},{"bufferView":2,"byteOffset":33532,"componentType":5123,"count":120,"type":"SCALAR"},{"bufferView":2,"byteOffset":33772,"componentType":5123,"count":270,"type":"SCALAR"},{"bufferView":2,"byteOffset":34312,"componentType":5123,"count":120,"type":"SCALAR"},{"bufferView":2,"byteOffset":34552,"componentType":5123,"count":624,"type":"SCALAR"},{"bufferView":2,"byteOffset":35800,"componentType":5123,"count":120,"type":"SCALAR"},{"bufferView":2,"byteOffset":36040,"componentType":5123,"count":144,"type":"SCALAR"},{"bufferView":2,"byteOffset":36328,"componentType":5123,"count":174,"type":"SCALAR"},{"bufferView":2,"byteOffset":36676,"componentType":5123,"count":42,"type":"SCALAR"},{"bufferView":2,"byteOffset":36760,"componentType":5123,"count":6,"type":"SCALAR"},{"bufferView":2,"byteOffset":36772,"componentType":5123,"count":144,"type":"SCALAR"},{"bufferView":2,"byteOffset":37060,"componentType":5123,"count":6,"type":"SCALAR"},{"bufferView":2,"byteOffset":37072,"componentType":5123,"count":342,"type":"SCALAR"},{"bufferView":2,"byteOffset":37756,"componentType":5123,"count":6,"type":"SCALAR"},{"bufferView":2,"byteOffset":37768,"componentType":5123,"count":342,"type":"SCALAR"},{"bufferView":2,"byteOffset":38452,"componentType":5123,"count":6,"type":"SCALAR"},{"bufferView":2,"byteOffset":38464,"componentType":5123,"count":6,"type":"SCALAR"},{"bufferView":2,"byteOffset":38476,"componentType":5123,"count":144,"type":"SCALAR"},{"bufferView":2,"byteOffset":38764,"componentType":5123,"count":6,"type":"SCALAR"},{"bufferView":2,"byteOffset":38776,"componentType":5123,"count":342,"type":"SCALAR"},{"bufferView":2,"byteOffset":39460,"componentType":5123,"count":6,"type":"SCALAR"},{"bufferView":2,"byteOffset":39472,"componentType":5123,"count":342,"type":"SCALAR"},{"bufferView":2,"byteOffset":40156,"componentType":5123,"count":6,"type":"SCALAR"},{"bufferView":2,"byteOffset":40168,"componentType":5123,"count":6,"type":"SCALAR"},{"bufferView":2,"byteOffset":40180,"componentType":5123,"count":144,"type":"SCALAR"},{"bufferView":2,"byteOffset":40468,"componentType":5123,"count":342,"type":"SCALAR"},{"bufferView":2,"byteOffset":41152,"componentType":5123,"count":6,"type":"SCALAR"},{"bufferView":2,"byteOffset":41164,"componentType":5123,"count":342,"type":"SCALAR"},{"bufferView":2,"byteOffset":41848,"componentType":5123,"count":6,"type":"SCALAR"},{"bufferView":2,"byteOffset":41860,"componentType":5123,"count":144,"type":"SCALAR"},{"bufferView":2,"byteOffset":42148,"componentType":5123,"count":6,"type":"SCALAR"},{"bufferView":2,"byteOffset":42160,"componentType":5123,"count":6,"type":"SCALAR"},{"bufferView":2,"byteOffset":42172,"componentType":5123,"count":144,"type":"SCALAR"},{"bufferView":2,"byteOffset":42460,"componentType":5123,"count":342,"type":"SCALAR"},{"bufferView":2,"byteOffset":43144,"componentType":5123,"count":6,"type":"SCALAR"},{"bufferView":2,"byteOffset":43156,"componentType":5123,"count":342,"type":"SCALAR"},{"bufferView":2,"byteOffset":43840,"componentType":5123,"count":6,"type":"SCALAR"},{"bufferView":2,"byteOffset":43852,"componentType":5123,"count":144,"type":"SCALAR"},{"bufferView":2,"byteOffset":44140,"componentType":5123,"count":6,"type":"SCALAR"},{"bufferView":2,"byteOffset":44152,"componentType":5123,"count":342,"type":"SCALAR"},{"bufferView":2,"byteOffset":44836,"componentType":5123,"count":6,"type":"SCALAR"},{"bufferView":2,"byteOffset":44848,"componentType":5123,"count":342,"type":"SCALAR"},{"bufferView":2,"byteOffset":45532,"componentType":5123,"count":6,"type":"SCALAR"},{"bufferView":2,"byteOffset":45544,"componentType":5123,"count":342,"type":"SCALAR"},{"bufferView":2,"byteOffset":46228,"componentType":5123,"count":342,"type":"SCALAR"},{"bufferView":2,"byteOffset":46912,"componentType":5123,"count":342,"type":"SCALAR"},{"bufferView":2,"byteOffset":47596,"componentType":5123,"count":342,"type":"SCALAR"},{"bufferView":2,"byteOffset":48280,"componentType":5123,"count":342,"type":"SCALAR"},{"bufferView":2,"byteOffset":48964,"componentType":5123,"count":354,"type":"SCALAR"}],"asset":{"generator":"Open CASCADE Technology 7.8 [dev.opencascade.org]","version":"2.0"},"bufferViews":[{"buffer":0,"byteLength":102240,"byteOffset":0,"byteStride":12,"target":34962},{"buffer":0,"byteLength":102240,"byteOffset":102240,"byteStride":12,"target":34962},{"buffer":0,"byteLength":49672,"byteOffset":204480,"target":34963}],"buffers":[{"byteLength":254152,"uri":"gasket-mount-keyboard-bottom-plate.bin"}],"materials":[{"name":"mat_0","pbrMetallicRoughness":{"baseColorFactor":[0.16826939582824707,0.19120168685913086,0.2158605307340622,1.0]},"doubleSided":true}],"meshes":[{"name":"bottom-plate","primitives":[{"attributes":{"NORMAL":131,"POSITION":0},"indices":262,"material":0,"mode":4},{"attributes":{"NORMAL":132,"POSITION":1},"indices":263,"material":0,"mode":4},{"attributes":{"NORMAL":133,"POSITION":2},"indices":264,"material":0,"mode":4},{"attributes":{"NORMAL":134,"POSITION":3},"indices":265,"material":0,"mode":4},{"attributes":{"NORMAL":135,"POSITION":4},"indices":266,"material":0,"mode":4},{"attributes":{"NORMAL":136,"POSITION":5},"indices":267,"material":0,"mode":4},{"attributes":{"NORMAL":137,"POSITION":6},"indices":268,"material":0,"mode":4},{"attributes":{"NORMAL":138,"POSITION":7},"indices":269,"material":0,"mode":4},{"attributes":{"NORMAL":139,"POSITION":8},"indices":270,"material":0,"mode":4},{"attributes":{"NORMAL":140,"POSITION":9},"indices":271,"material":0,"mode":4},{"attributes":{"NORMAL":141,"POSITION":10},"indices":272,"material":0,"mode":4},{"attributes":{"NORMAL":142,"POSITION":11},"indices":273,"material":0,"mode":4},{"attributes":{"NORMAL":143,"POSITION":12},"indices":274,"material":0,"mode":4},{"attributes":{"NORMAL":144,"POSITION":13},"indices":275,"material":0,"mode":4},{"attributes":{"NORMAL":145,"POSITION":14},"indices":276,"material":0,"mode":4},{"attributes":{"NORMAL":146,"POSITION":15},"indices":277,"material":0,"mode":4},{"attributes":{"NORMAL":147,"POSITION":16},"indices":278,"material":0,"mode":4},{"attributes":{"NORMAL":148,"POSITION":17},"indices":279,"material":0,"mode":4},{"attributes":{"NORMAL":149,"POSITION":18},"indices":280,"material":0,"mode":4},{"attributes":{"NORMAL":150,"POSITION":19},"indices":281,"material":0,"mode":4},{"attributes":{"NORMAL":151,"POSITION":20},"indices":282,"material":0,"mode":4},{"attributes":{"NORMAL":152,"POSITION":21},"indices":283,"material":0,"mode":4},{"attributes":{"NORMAL":153,"POSITION":22},"indices":284,"material":0,"mode":4},{"attributes":{"NORMAL":154,"POSITION":23},"indices":285,"material":0,"mode":4},{"attributes":{"NORMAL":155,"POSITION":24},"indices":286,"material":0,"mode":4},{"attributes":{"NORMAL":156,"POSITION":25},"indices":287,"material":0,"mode":4},{"attributes":{"NORMAL":157,"POSITION":26},"indices":288,"material":0,"mode":4},{"attributes":{"NORMAL":158,"POSITION":27},"indices":289,"material":0,"mode":4},{"attributes":{"NORMAL":159,"POSITION":28},"indices":290,"material":0,"mode":4},{"attributes":{"NORMAL":160,"POSITION":29},"indices":291,"material":0,"mode":4},{"attributes":{"NORMAL":161,"POSITION":30},"indices":292,"material":0,"mode":4},{"attributes":{"NORMAL":162,"POSITION":31},"indices":293,"material":0,"mode":4},{"attributes":{"NORMAL":163,"POSITION":32},"indices":294,"material":0,"mode":4},{"attributes":{"NORMAL":164,"POSITION":33},"indices":295,"material":0,"mode":4},{"attributes":{"NORMAL":165,"POSITION":34},"indices":296,"material":0,"mode":4},{"attributes":{"NORMAL":166,"POSITION":35},"indices":297,"material":0,"mode":4},{"attributes":{"NORMAL":167,"POSITION":36},"indices":298,"material":0,"mode":4},{"attributes":{"NORMAL":168,"POSITION":37},"indices":299,"material":0,"mode":4},{"attributes":{"NORMAL":169,"POSITION":38},"indices":300,"material":0,"mode":4},{"attributes":{"NORMAL":170,"POSITION":39},"indices":301,"material":0,"mode":4},{"attributes":{"NORMAL":171,"POSITION":40},"indices":302,"material":0,"mode":4},{"attributes":{"NORMAL":172,"POSITION":41},"indices":303,"material":0,"mode":4},{"attributes":{"NORMAL":173,"POSITION":42},"indices":304,"material":0,"mode":4},{"attributes":{"NORMAL":174,"POSITION":43},"indices":305,"material":0,"mode":4},{"attributes":{"NORMAL":175,"POSITION":44},"indices":306,"material":0,"mode":4},{"attributes":{"NORMAL":176,"POSITION":45},"indices":307,"material":0,"mode":4},{"attributes":{"NORMAL":177,"POSITION":46},"indices":308,"material":0,"mode":4},{"attributes":{"NORMAL":178,"POSITION":47},"indices":309,"material":0,"mode":4},{"attributes":{"NORMAL":179,"POSITION":48},"indices":310,"material":0,"mode":4},{"attributes":{"NORMAL":180,"POSITION":49},"indices":311,"material":0,"mode":4},{"attributes":{"NORMAL":181,"POSITION":50},"indices":312,"material":0,"mode":4},{"attributes":{"NORMAL":182,"POSITION":51},"indices":313,"material":0,"mode":4},{"attributes":{"NORMAL":183,"POSITION":52},"indices":314,"material":0,"mode":4},{"attributes":{"NORMAL":184,"POSITION":53},"indices":315,"material":0,"mode":4},{"attributes":{"NORMAL":185,"POSITION":54},"indices":316,"material":0,"mode":4},{"attributes":{"NORMAL":186,"POSITION":55},"indices":317,"material":0,"mode":4},{"attributes":{"NORMAL":187,"POSITION":56},"indices":318,"material":0,"mode":4},{"attributes":{"NORMAL":188,"POSITION":57},"indices":319,"material":0,"mode":4},{"attributes":{"NORMAL":189,"POSITION":58},"indices":320,"material":0,"mode":4},{"attributes":{"NORMAL":190,"POSITION":59},"indices":321,"material":0,"mode":4},{"attributes":{"NORMAL":191,"POSITION":60},"indices":322,"material":0,"mode":4},{"attributes":{"NORMAL":192,"POSITION":61},"indices":323,"material":0,"mode":4},{"attributes":{"NORMAL":193,"POSITION":62},"indices":324,"material":0,"mode":4},{"attributes":{"NORMAL":194,"POSITION":63},"indices":325,"material":0,"mode":4},{"attributes":{"NORMAL":195,"POSITION":64},"indices":326,"material":0,"mode":4},{"attributes":{"NORMAL":196,"POSITION":65},"indices":327,"material":0,"mode":4},{"attributes":{"NORMAL":197,"POSITION":66},"indices":328,"material":0,"mode":4},{"attributes":{"NORMAL":198,"POSITION":67},"indices":329,"material":0,"mode":4},{"attributes":{"NORMAL":199,"POSITION":68},"indices":330,"material":0,"mode":4},{"attributes":{"NORMAL":200,"POSITION":69},"indices":331,"material":0,"mode":4},{"attributes":{"NORMAL":201,"POSITION":70},"indices":332,"material":0,"mode":4},{"attributes":{"NORMAL":202,"POSITION":71},"indices":333,"material":0,"mode":4},{"attributes":{"NORMAL":203,"POSITION":72},"indices":334,"material":0,"mode":4},{"attributes":{"NORMAL":204,"POSITION":73},"indices":335,"material":0,"mode":4},{"attributes":{"NORMAL":205,"POSITION":74},"indices":336,"material":0,"mode":4},{"attributes":{"NORMAL":206,"POSITION":75},"indices":337,"material":0,"mode":4},{"attributes":{"NORMAL":207,"POSITION":76},"indices":338,"material":0,"mode":4},{"attributes":{"NORMAL":208,"POSITION":77},"indices":339,"material":0,"mode":4},{"attributes":{"NORMAL":209,"POSITION":78},"indices":340,"material":0,"mode":4},{"attributes":{"NORMAL":210,"POSITION":79},"indices":341,"material":0,"mode":4},{"attributes":{"NORMAL":211,"POSITION":80},"indices":342,"material":0,"mode":4},{"attributes":{"NORMAL":212,"POSITION":81},"indices":343,"material":0,"mode":4},{"attributes":{"NORMAL":213,"POSITION":82},"indices":344,"material":0,"mode":4},{"attributes":{"NORMAL":214,"POSITION":83},"indices":345,"material":0,"mode":4},{"attributes":{"NORMAL":215,"POSITION":84},"indices":346,"material":0,"mode":4},{"attributes":{"NORMAL":216,"POSITION":85},"indices":347,"material":0,"mode":4},{"attributes":{"NORMAL":217,"POSITION":86},"indices":348,"material":0,"mode":4},{"attributes":{"NORMAL":218,"POSITION":87},"indices":349,"material":0,"mode":4},{"attributes":{"NORMAL":219,"POSITION":88},"indices":350,"material":0,"mode":4},{"attributes":{"NORMAL":220,"POSITION":89},"indices":351,"material":0,"mode":4},{"attributes":{"NORMAL":221,"POSITION":90},"indices":352,"material":0,"mode":4},{"attributes":{"NORMAL":222,"POSITION":91},"indices":353,"material":0,"mode":4},{"attributes":{"NORMAL":223,"POSITION":92},"indices":354,"material":0,"mode":4},{"attributes":{"NORMAL":224,"POSITION":93},"indices":355,"material":0,"mode":4},{"attributes":{"NORMAL":225,"POSITION":94},"indices":356,"material":0,"mode":4},{"attributes":{"NORMAL":226,"POSITION":95},"indices":357,"material":0,"mode":4},{"attributes":{"NORMAL":227,"POSITION":96},"indices":358,"material":0,"mode":4},{"attributes":{"NORMAL":228,"POSITION":97},"indices":359,"material":0,"mode":4},{"attributes":{"NORMAL":229,"POSITION":98},"indices":360,"material":0,"mode":4},{"attributes":{"NORMAL":230,"POSITION":99},"indices":361,"material":0,"mode":4},{"attributes":{"NORMAL":231,"POSITION":100},"indices":362,"material":0,"mode":4},{"attributes":{"NORMAL":232,"POSITION":101},"indices":363,"material":0,"mode":4},{"attributes":{"NORMAL":233,"POSITION":102},"indices":364,"material":0,"mode":4},{"attributes":{"NORMAL":234,"POSITION":103},"indices":365,"material":0,"mode":4},{"attributes":{"NORMAL":235,"POSITION":104},"indices":366,"material":0,"mode":4},{"attributes":{"NORMAL":236,"POSITION":105},"indices":367,"material":0,"mode":4},{"attributes":{"NORMAL":237,"POSITION":106},"indices":368,"material":0,"mode":4},{"attributes":{"NORMAL":238,"POSITION":107},"indices":369,"material":0,"mode":4},{"attributes":{"NORMAL":239,"POSITION":108},"indices":370,"material":0,"mode":4},{"attributes":{"NORMAL":240,"POSITION":109},"indices":371,"material":0,"mode":4},{"attributes":{"NORMAL":241,"POSITION":110},"indices":372,"material":0,"mode":4},{"attributes":{"NORMAL":242,"POSITION":111},"indices":373,"material":0,"mode":4},{"attributes":{"NORMAL":243,"POSITION":112},"indices":374,"material":0,"mode":4},{"attributes":{"NORMAL":244,"POSITION":113},"indices":375,"material":0,"mode":4},{"attributes":{"NORMAL":245,"POSITION":114},"indices":376,"material":0,"mode":4},{"attributes":{"NORMAL":246,"POSITION":115},"indices":377,"material":0,"mode":4},{"attributes":{"NORMAL":247,"POSITION":116},"indices":378,"material":0,"mode":4},{"attributes":{"NORMAL":248,"POSITION":117},"indices":379,"material":0,"mode":4},{"attributes":{"NORMAL":249,"POSITION":118},"indices":380,"material":0,"mode":4},{"attributes":{"NORMAL":250,"POSITION":119},"indices":381,"material":0,"mode":4},{"attributes":{"NORMAL":251,"POSITION":120},"indices":382,"material":0,"mode":4},{"attributes":{"NORMAL":252,"POSITION":121},"indices":383,"material":0,"mode":4},{"attributes":{"NORMAL":253,"POSITION":122},"indices":384,"material":0,"mode":4},{"attributes":{"NORMAL":254,"POSITION":123},"indices":385,"material":0,"mode":4},{"attributes":{"NORMAL":255,"POSITION":124},"indices":386,"material":0,"mode":4},{"attributes":{"NORMAL":256,"POSITION":125},"indices":387,"material":0,"mode":4},{"attributes":{"NORMAL":257,"POSITION":126},"indices":388,"material":0,"mode":4},{"attributes":{"NORMAL":258,"POSITION":127},"indices":389,"material":0,"mode":4},{"attributes":{"NORMAL":259,"POSITION":128},"indices":390,"material":0,"mode":4},{"attributes":{"NORMAL":260,"POSITION":129},"indices":391,"material":0,"mode":4},{"attributes":{"NORMAL":261,"POSITION":130},"indices":392,"material":0,"mode":4}]}],"nodes":[{"mesh":0,"name":"bottom-plate"}],"scene":0,"scenes":[{"nodes":[0]}]}